<?xml version="1.0" encoding="UTF-8"?>
<svg id="Calque_1" data-name="Calque 1" xmlns="http://www.w3.org/2000/svg" width="307.5" height="198.08" viewBox="0 0 307.5 198.08">
  <path d="M270.51,123.26c11.61,5.61,23.44,10.7,35.51,15.27,2.84,2.33,1.32,7.34-2.41,7.36-1.03,0-3.01-.88-4.13-1.24-5.89-1.9-12.46-4.81-18.16-7.34-3.4-1.51-8.77-4.85-11.86-5.82-.21-.07-.67-.11-.61.2,3.27,3.83.15,8.91-4.83,6.89-1.38-.56-8.19-8.76-8.97-10.35-1.45-2.95-1.31-8.9,2.35-10.03,1.1-.34,2.24-.14,3.25-.45,5.47-1.66,12.22-5.11,17.63-6.22,2.99-.61,5.94.96,5.51,4.27-.66,5.12-10.1,4.55-13.29,7.46Z"/>
  <path d="M69.31,150.67c-1.12,1.12-3.03,1.21-4.5.88-2.8-.64-2.97-5.39-3.95-7.56-.22-.48.2-.75-.85-.57-3.35,5.51-6.99,10.94-10.77,16.16-2.61,3.59-10.43,14.92-13.51,16.91-3.97,2.57-8.08-.97-6.1-5.27,9.19-9.98,16.29-21.58,24.2-32.54.12-.56-.03-.78-.61-.61-1.9.56-4.46,2.76-6.68,3.18-5.25,1-7.52-4.42-3.54-7.23,2.07-1.46,10.65-5.1,13.21-5.71,8.27-1.96,9.94,5.53,12.02,12,.88,2.74,3.27,8.15,1.08,10.35Z"/>
  <path d="M194.45,163.97c2.44,6.8,5.94,13.22,8.7,19.87,1.02,2.46,3.97,8.79,3.54,11.07-.68,3.61-5.67,4.34-7.48,1.09l-12.99-30.39c-2.08,2.25-1.73,6.98-4.64,8.72-1.86,1.11-3.77.96-5.23-.69-3.53-4,1.29-10.55,2.79-14.5,1.26-3.32,1.42-10.56,6.02-10.36,3.93.17,3.79,4.78,4.32,5.14.48.32,1.75.14,2.51.36,3.98,1.2,16.83,6.4,11.93,11.96-3.31,3.76-6.45-.75-9.47-2.28Z"/>
  <path d="M125.66,1.28c1.52,1.63.78,5.01.97,7.09l-2.07,28.97,3.13-3.23c2.69-1.6,6.38.7,6.19,3.8-.15,2.43-6.44,8.7-8.53,10.31-.45.35-1.3.48-1.51.74-.31.38-.27,1.46-.6,2.07-1.52,2.79-4.73,3.09-7.11,1.13-1.81-1.5-7.32-13.69-8.49-16.59-.99-2.45-2.46-5.48-.14-7.69,1.7-1.63,3.99-1.42,5.74.04l3.52,5.73,1.83-30.45c.76-3.2,4.9-4.27,7.1-1.9Z"/>
  <path d="M24.23,58.71L1.6,44.14c-3.8-3.33-.24-8.69,4.42-6.89l30.75,19.4c2.89-3.23.65-12.9,5.79-13.55,7.44-.95,3.94,11.5,2.54,15.31-2.08,5.64-4.52,10.35-11.21,10.99-3.11.3-14.63-1.18-15.93-4.21-1.96-4.57,2.03-7.25,6.27-6.48Z"/>
  <path d="M220.76,53.78c3.88.23,5.21,5.7,2.03,7.58-2.95,1.74-10.12,2.14-12.93-.17-3.45-2.84-4.38-13.28-3.9-17.48.38-3.32,3.36-5.51,6.38-3.5,2.72,1.81,1.47,5.15,2.46,7.81l23.43-28.79c3.75-2.58,8.39.84,6.32,5.08l-23.78,29.46Z"/>
</svg>