<?xml version="1.0" encoding="UTF-8"?>
<svg id="uuid-ec996a61-2a40-4657-bf32-e2f4df6b1f3f" data-name="Calque 1" xmlns="http://www.w3.org/2000/svg" viewBox="0 0 1170.97 514.27">
  <path d="M236.49,173.53c5.57-4.62,8.95-6.82,11.58-9.71,6.94-7.63,13.51-15.61,20.33-23.36,3.29-3.74,6.45-7.74,10.3-10.83,12.94-10.37,27.66-7.95,37.06,5.8,1.69,2.47,3.2,5.09,4.46,7.8,8.46,18.25,13.99,37.49,17.88,57.11,2.94,14.81-10.49,26.41-24.64,22.08-6.96-2.13-11.17-7.03-13.06-13.94-1.85-6.75-3.45-13.57-5.3-20.31-1.05-3.8-2.4-7.51-3.97-12.37-2.69,2.55-4.52,4.3-6.36,6.04-6.75,6.42-13.01,13.48-20.36,19.13-17.86,13.75-36.56,13.19-53.86-1.35-5.57-4.68-10.35-10.35-15.16-15.86-6.55-7.49-12.8-15.26-19.56-23.37-3.81,3.57-3.54,7.76-3.99,11.39-2.31,18.51-4.29,37.07-6.41,55.61-.38,3.3-.51,6.7-1.4,9.87-2.62,9.33-11.01,14.89-20.48,13.94-9-.91-15.96-7.64-17.19-16.81-.26-1.96-.28-4.01-.04-5.98,2.99-24.8,5.78-49.63,9.24-74.37,1-7.16,3.23-14.39,6.21-20.99,7.21-16,22.68-22.04,39.14-15.95,8.96,3.31,16.33,9.03,22.55,16.14,8.11,9.28,15.98,18.78,23.86,28.27,2.96,3.57,5.64,7.37,9.18,12.02Z"/>
  <path d="M621.94,162.72c5.06,2.17,9.58,4.08,14.07,6.05,13.91,6.1,26.54,14.02,36.1,26.08,2.67,3.37,5.23,7.01,6.9,10.93,3.75,8.8,.35,18.65-7.57,23.61-7.98,5-19.16,4.35-24.38-3.56-11.02-16.71-28.44-22.24-45.47-28.95-8.27-3.26-16.35-6.99-25.44-10.9-1.64,3.56-1.21,8.56-2.14,13.21-.85,4.24-1.03,8.66-2.29,12.76-2.67,8.75-11.41,14.77-20.5,14.71-9.19-.06-16.51-5.16-18.66-15.03-2.47-11.35-3.98-22.97-5.07-34.56-1.5-15.92-2.19-31.92-3.26-47.88-.9-13.37,4.72-20.83,17.68-23.38,1.28-.25,2.56-.52,4.09-.83,1.4-3.09,2.65-6.15,4.15-9.07,8.92-17.36,27.47-24.39,45.79-17.41,32.18,12.27,45.27,46.45,29.56,77.21-1.03,2.01-2.05,4.02-3.56,7Zm-42.95-14.5c17.15-11.99,18.53-23.33,4.43-31.48-1.53,10.88-2.98,21.18-4.43,31.48Z"/>
  <path d="M778.54,177.19c-1.69,9.4-3.64,18.75-4.98,28.2-1.27,8.89-1.55,17.92-2.88,26.8-2.2,14.73-16.96,22.12-29.12,14.78-7.73-4.66-10.47-11.94-9.31-20.54,2.53-18.79,4.97-37.61,8.25-56.27,1.89-10.78,4.98-21.4,8.25-31.87,1.76-5.63,4.33-11.31,7.76-16.07,9.91-13.74,27.44-14.75,38.65-2.08,4.78,5.4,8.6,11.89,11.78,18.41,4.96,10.15,8.99,20.76,13.48,31.15,1,2.32,2.25,4.52,5.26,6.6,1.24-9.75,2.16-19.56,3.82-29.25,1.23-7.16,2.56-14.51,5.4-21.12,3.33-7.75,10.43-10.91,18.9-10.17,7.93,.69,14.43,6.11,16.5,13.88,.67,2.51,1,5.33,.61,7.87-3.2,21.05-6.4,42.1-10.04,63.07-1.53,8.83-3.45,17.71-6.36,26.16-7.55,21.9-29,26.29-44.38,8.97-5-5.63-8.91-12.48-12.23-19.3-4.79-9.86-8.57-20.22-12.83-30.34-1.27-3.01-2.67-5.97-4.01-8.95-.84,.02-1.68,.04-2.52,.07Z"/>
  <path d="M969.57,170.51c4.56,.67,9.1,1.76,13.68,1.92,17.83,.65,35.2-1.64,51.83-8.59,11.67-4.88,22.37-.99,26.9,9.4,4.33,9.94,.19,20.22-10.56,25.75-3.25,1.67-6.65,3.13-10.14,4.22-22.52,7-45.48,10.19-69.05,7.27-23.17-2.87-40.8-14.4-51.42-35.13-4.8-9.37-8.55-19.68-10.57-29.99-7.38-37.7,20.61-70.5,59.54-70.52,11.11,0,21.89,1.88,31.66,7.74,18.93,11.36,23.51,31.45,10.97,49.69-2.8,4.06-6.28,7.87-10.12,10.96-8.56,6.89-17.54,13.25-26.34,19.82-2.31,1.72-4.62,3.43-6.93,5.15,.18,.77,.37,1.54,.55,2.31Zm6.26-54.98c-16.96-2.95-26.94,4.27-26.74,18.65,8.76-6.11,16.78-11.7,26.74-18.65Z"/>
  <path d="M668.8,378.99c2.19-2.55,4.13-5.3,6.55-7.52,9.56-8.8,20.58-14.65,33.8-15.49,14.73-.93,25.9,5.12,33.11,17.92,7.48,13.3,8.51,27.33,2.11,41.22-3.87,8.4-9.07,16.19-14.06,24.92,1.81,1.48,4.13,3.24,6.3,5.17,7.68,6.86,15.78,13.35,22.83,20.82,6.88,7.29,6.18,18.39-.4,25.44-6.62,7.09-17.15,8.07-25.44,2.27-1.63-1.14-3.16-2.47-4.51-3.92-13.38-14.32-29.99-24.1-47.78-34.26-1.04,3.08-1.87,5.75-2.83,8.38-3.31,9.07-10.46,14.06-19.77,13.86-9.38-.21-17.21-5.18-19-14.62-2.47-13.01-3.48-26.32-4.66-39.54-.86-9.6-.84-19.27-1.45-28.89-.54-8.36,2.01-15.17,9.4-19.5,7.41-4.34,14.64-3.38,21.54,1.48,1.04,.73,2.26,1.21,4.27,2.27Zm20.8,40.53c13.4-5.89,19.72-14.51,18.32-24.1-9.48,5.02-14.18,13.24-18.32,24.1Z"/>
  <path d="M175.06,396.38c-7.48,11.01-10.42,21.21-13.24,31.44-1.5,5.45-2.3,11.13-4.17,16.43-4.03,11.41-17.2,17.05-27.68,12.19-6.56-3.05-10.37-8.24-11.08-15.46-1.28-12.9-2.71-25.8-3.54-38.73-1.68-26.22-3.01-52.46-4.44-78.69-.13-2.32-.14-4.68,.09-6.99,.97-10.11,8.57-17.2,18.51-17.39,9.98-.18,18.15,6.52,19.19,16.59,.82,7.93,.69,15.96,.99,23.94,.1,2.66,.18,5.32,.4,7.97,.45,5.26,1,10.52,1.58,16.52,2.62-.84,4.75-1.39,6.78-2.2,16.23-6.46,31.02-3.51,43.44,8.2,6.19,5.83,11.39,13.07,15.72,20.45,11.19,19.09,18.29,39.88,23.07,61.44,.71,3.23,1.17,6.59,1.13,9.88-.09,8.83-6.18,16.25-14.41,18.03-8.95,1.93-17.91-2.25-21.59-10.47-1.34-2.99-1.94-6.34-2.69-9.57-3.98-17.28-9.66-33.94-18.28-49.47-2.51-4.52-5.87-8.56-9.76-14.13Z"/>
  <path d="M404.1,412.59c-1.08,9.17-2.16,18.34-3.23,27.51-.54,4.63-.71,9.32-1.62,13.87-2.01,10.03-10.21,16.04-20.32,15.31-9.93-.72-17.71-8.2-17.2-18.5,1.31-26.31,4.43-52.42,11.99-77.79,.75-2.53,1.96-4.97,3.27-7.27,9.46-16.62,28.49-19.79,42.04-6.29,5.8,5.78,9.93,13.26,14.61,20.11,2.03,2.97,3.52,6.3,6.12,11.04,1-3.17,1.81-4.76,1.97-6.42,.77-8.28,1.29-16.58,2.03-24.86,.91-10.27,9.37-18.14,19.23-18.06,9.97,.09,18.5,8.06,18.58,18.43,.24,28.52-4.27,56.38-12.75,83.58-1.17,3.75-3.13,7.41-5.42,10.63-10.25,14.38-29.21,13.92-37.98-1.4-5.44-9.49-9.25-19.91-13.81-29.9-1.62-3.55-3.28-7.09-4.92-10.63-.86,.21-1.72,.43-2.58,.64Z"/>
  <path d="M1087.83,461.79c-5.99,5.89-10.42,10.35-14.99,14.68-2.65,2.51-5.32,5.1-8.33,7.13-8.39,5.65-18.96,4.22-25.31-3.13-6.2-7.19-6.21-18.35,.62-25.53,6.65-6.99,13.36-14.09,20.95-19.97,11.24-8.71,15.01-18.11,7.82-31.4-3.11-5.74-4.33-12.57-6-19-2.67-10.26,2.45-19.97,11.96-23.34,9.88-3.49,20.17,1.31,24.33,11.65,1.98,4.91,3.41,10.04,5.42,16.07,2.54-2.03,4.72-3.4,6.44-5.2,8.97-9.38,17.74-18.96,26.76-28.3,6.66-6.9,15.9-8.24,23.73-3.84,7.13,4.01,11.41,12.48,9.11,20.36-1.25,4.28-3.88,8.52-6.93,11.83-12.62,13.72-25.37,27.35-38.65,40.42-5.31,5.23-6.47,9.82-3.56,16.63,6.39,14.99,12.02,30.3,18.21,45.37,4.1,9.98,1.31,20.07-7.45,25.19-9.21,5.38-20.37,3.09-25.98-6.77-5.07-8.91-8.51-18.74-12.55-28.22-1.79-4.21-3.28-8.54-5.61-14.65Z"/>
  <path d="M436.69,88.48c16.91-2.31,23.46,1,30.25,16.39,9.67,21.94,19.02,44.02,28.19,66.18,4.03,9.74-.19,20.15-9.23,24.63-9.15,4.53-19.67,1.69-25.18-7.51-3.55-5.94-6.12-12.47-9.6-19.69-1.88,2-3.32,3.5-4.73,5.03-3.6,3.91-6.84,8.24-10.84,11.69-19.03,16.42-43.13,12.47-56.24-9.09-7.18-11.8-9.75-24.75-8.37-38.38,1.57-15.52,7.09-29.73,15.44-42.84,1.6-2.51,3.58-4.84,5.68-6.95,13.12-13.16,30.25-13.08,44.63,.53Zm-25.68,65.4c10.28-11.18,13.95-22.63,12.59-35.59-3.87-1.67-6.57-.05-7.83,3.51-2.3,6.55-4.62,13.15-6.05,19.92-.68,3.23,.65,6.89,1.29,12.16Z"/>
  <path d="M307.16,406.18c-6.85,4.23-12.98,8.93-19.83,12.07-18.34,8.4-36.03,2.49-46.11-15.1-8.87-15.48-9.44-32.4-6.98-49.48,.98-6.86,2.88-13.72,5.28-20.23,7.14-19.36,23.05-30.22,43.65-30.49,11.63-.15,22.36,3.26,32.49,8.53,2.83,1.47,6.33,3.87,7.14,6.57,2.4,7.93,7.92,13.44,12.57,19.76,2.4,3.27,3.28,7.99,3.86,12.2,2.18,15.81,4.05,31.66,5.84,47.51,1,8.86-3.81,16.76-11.78,20.01-7.58,3.1-16.2,1.03-21.75-5.38-1.71-1.97-3.1-4.21-4.37-5.97Zm-33.42-23.62c13.28-10.44,18.69-23.11,22.79-37.9-4.64-1.31-8.32-2.79-12.12-3.29-3.9-.51-7.26,1.23-8.76,5.17-4.23,11.08-5.58,22.36-1.9,36.01Z"/>
  <path d="M892.61,444.83c-3.18,1.22-6.17,2.45-9.21,3.52-19.29,6.79-39.31-1.78-45.25-21.16-9.24-30.17-1.69-59.31,26.9-77.7,16.59-10.67,34.92-6.47,46.52,9.53,1.62,2.23,4.17,4.14,6.7,5.29,8.1,3.69,12.93,10.05,13.14,18.56,.55,22.63,.78,45.29,.17,67.91-.33,12.36-11.19,19.75-23,17.25-7.86-1.66-13.29-7.82-14.81-16.88-.16-.98,0-2.01-.17-2.99-.16-.95-.54-1.87-.99-3.33Zm-3.07-56.82c-6.78-4.41-6.85-4.43-10.69-.13-5.38,6.03-6.69,12.94-5.01,21.01,8.81-5.43,11.38-8.85,15.7-20.88Z"/>
  <path d="M520.91,376.09c-2.59-1.18-4.8-1.97-6.79-3.13-12.63-7.34-13.92-23.97-2.08-32.39,4.38-3.11,6.74-6.02,7.69-11.54,2.23-12.92,16.18-19.17,27.78-13.1,2.33,1.22,4.39,2.96,7.14,4.86,4.8-2.32,9.79-4.85,14.88-7.15,10.17-4.58,20.75-1.34,25.86,7.79,5.33,9.52,2.18,20.59-7.91,26.59-4.56,2.71-9.48,4.8-14.27,7.11-4.47,2.16-8.97,4.24-14.03,6.63,.42,19.08,8.6,34.29,20.95,48.16,3.34-1.83,5.86-3.38,8.53-4.63,9.13-4.28,19.19-1.52,24.63,6.65,5.35,8.03,4.2,19.01-3.48,25.29-17.12,14-40.14,18.38-58.99-1.7-13.38-14.25-22.85-30.98-27.49-50.18-.7-2.9-1.5-5.78-2.42-9.27Z"/>
  <path d="M1002.68,389.17c6.41-4.24,8.15-10.11,8.59-16,1.06-14.25,1.46-28.55,2.07-42.83,.08-1.99-.36-4-.19-5.98,.79-9.52,7.98-16.84,17.34-17.83,8.94-.94,17.71,5.26,20.21,14.44,.52,1.91,.93,3.95,.85,5.91-.7,17.61-.64,35.32-2.54,52.81-1.82,16.76-9.27,31.21-23.79,41.09-17.75,12.07-36.82,10.04-51.38-5.62-7.36-7.91-12.77-17.06-16.29-27.27-4.95-14.37-6.52-29.28-5.69-44.33,.85-15.37,16.02-23.91,28.67-16.6,6.3,3.64,9.23,9.27,9.5,16.51,.26,6.98,.55,13.98,1.33,20.92,1.01,9.07,3.9,17.45,11.32,24.78Z"/>
  <path d="M64.41,485.12c-31.95-.59-53.18-17.29-61.21-46.64-9.12-33.32,1.71-57.97,26.37-79.09,10.63-9.1,23.53-10.56,36.77-8.7,9.92,1.39,16.01,9.91,15.44,20.11-.55,9.95-7.79,17.13-18.21,17.46-5.06,.16-9.95-.22-13.63,4.29-4.84,5.93-10.36,11.45-10.99,19.66-.23,2.98-.23,6,.02,8.98,1.57,18.55,11.31,26.89,29.75,24.93,5.55-.59,10.95-2.64,16.4-4.06,14.8-3.86,27.15,7.34,24.37,22.22-1.34,7.2-5.98,11.67-12.64,14.24-10.97,4.23-22.32,6.53-32.45,6.59Z"/>
  <path d="M714.99,111.09c1,14.36,2.06,27.98,2.88,41.62,.7,11.62-5.78,20.23-16.07,21.75-10.56,1.56-19.86-4.91-22.07-15.66-.87-4.23-1.25-8.59-1.48-12.9-1.2-22.63-2.31-45.27-3.37-67.91-.16-3.32-.11-6.68,.19-9.99,1.02-11.19,9.15-18.77,19.67-18.54,10.52,.23,18.35,8.16,18.81,19.38,.59,14.32,.98,28.64,1.42,42.24Z"/>
  <path d="M779.44,352.82c.36-1.93,.53-5.67,1.8-8.99,2.97-7.76,10.8-12.22,19.11-11.5,8.5,.74,15.7,6.92,16.99,15.71,1.45,9.85,2.01,19.82,3.1,29.72,1.66,15.19,3.71,30.34,5.07,45.56,.93,10.42-6.26,19.08-16.19,20.67-9.23,1.48-18.39-4.58-21.26-14.22-.66-2.21-.96-4.56-1.21-6.86-2.01-18.16-3.97-36.32-5.92-54.48-.5-4.62-.88-9.25-1.48-15.61Z"/>
  <path d="M694.15,38.5c-10.91,.2-19.73-8.51-19.65-19.41,.07-10.55,8.38-18.92,18.95-19.08,10.96-.17,19.8,8.51,19.71,19.36-.09,10.43-8.54,18.94-19,19.13Z"/>
  <path d="M809.56,295.83c-.18,10.44-8.72,18.72-19.27,18.68-10.95-.04-19.43-8.92-18.96-19.84,.45-10.45,9.27-18.68,19.62-18.32,10.27,.36,18.8,9.29,18.62,19.49Z"/>
</svg>