<?xml version="1.0" encoding="UTF-8"?>
<svg id="uuid-e7c281b5-feb5-490b-956d-7d7fb730e5d2" data-name="Calque 1" xmlns="http://www.w3.org/2000/svg" viewBox="0 0 393.79 302.71">
  <path d="M339.53,181.53c6.54,5.06,12.67,9.03,17.88,13.98,11.68,11.11,20.79,24.28,28.45,38.41,2.37,4.37,4.32,9.04,5.8,13.79,6.34,20.29-1.57,37-21.72,43.68-10.35,3.43-21.33,5.34-32.18,6.75-14.85,1.93-29.84,3.75-44.79,3.87-78.65,.59-157.31,.78-235.97,.68-9.88-.01-19.81-2.21-29.61-4-4.16-.76-8.27-2.65-12-4.74-13.7-7.71-19.21-21.55-12.56-35.78,8.45-18.07,18.39-35.46,27.89-53.03,1.72-3.18,4.43-5.81,7.56-9.82-1.83-2.75-4.45-7.27-7.65-11.32-3.52-4.44-4.99-9.29-4.79-14.83,1-27.3,1.72-54.62,3.06-81.9,.66-13.29,1.83-26.62,4.01-39.73,1.28-7.73,4.39-15.34,7.74-22.5,4.74-10.14,13.19-16.83,23.86-19.91,7.63-2.2,15.58-3.64,23.49-4.41,8.26-.81,16.67-.85,24.97-.47,41.26,1.91,82.58,3.31,123.75,6.46,23.18,1.77,46.18,6.29,69.17,10.09,13.93,2.3,23.2,11.01,28.67,23.84,5.03,11.8,7.54,24.28,7.76,36.97,.47,28.32,.46,56.66,.17,84.98-.07,6.54-2,13.07-2.96,18.95Zm-274.73-14.39c2.97,1.52,4.68,2.58,6.52,3.31,14.43,5.78,29.42,4.12,44.37,3.42,22.58-1.06,45.17-2.61,67.76-2.7,17.94-.07,35.88,2.02,53.84,2.63,18.29,.62,36.6,.75,54.9,.77,7.19,0,8.68-1.48,10.46-8.13,.6-2.24,1.08-4.59,1.06-6.89-.27-29.27-.42-58.55-1.16-87.81-.14-5.7-2.64-11.35-3.98-16.76-8.88-1.3-16.48-2.17-23.98-3.57-29.17-5.44-58.56-8.55-88.23-9.49-21.62-.68-43.22-2.25-64.84-2.74-12.6-.29-25.22,.8-37.83,1.2-7.18,.23-10.82,4.22-12.06,10.93-.42,2.29-.98,4.56-1.2,6.87-.98,10.26-2.24,20.52-2.71,30.81-1.17,25.9-1.97,51.82-2.93,78.15Zm252.17,43.23c-5.35,.83-10.89,1.92-16.48,2.52-27.99,2.99-55.9,0-83.82-1.32-30.62-1.45-61.17-2.65-91.82,.36-14.52,1.42-29.26,.81-43.9,.7-4.81-.04-9.62-1.39-15.06-2.25,1.62,11.06-4.35,18.61-8.7,26.75-4.33,8.09-8.66,16.17-13.8,25.78,10.19,.62,18.44,1.53,26.69,1.55,42.64,.11,85.28,.22,127.91-.12,35.3-.29,70.61-.91,105.89-1.97,16.21-.49,32.37-2.48,49.01-6.49-7.88-18.57-21.49-31.72-35.92-45.5Z"/>
  <path d="M176.22,239.01c.48-10.56,9.14-18.64,19.68-18.34,10.86,.3,19.33,9.47,18.81,20.35-.51,10.85-9.76,18.93-20.82,18.19-10.58-.71-18.16-9.37-17.67-20.2Z"/>
  <path d="M305.7,236.04c-.03,10.61-8.29,18.93-18.97,19.09-11.06,.17-19.89-8.44-19.8-19.32,.08-10.42,8.58-19,19.03-19.22,10.89-.22,19.77,8.52,19.74,19.45Z"/>
  <path d="M135.28,236.06c.05,10.74-7.98,19.04-18.66,19.31-11,.28-19.87-8.31-19.87-19.22,0-10.87,8.94-19.65,19.78-19.42,10.5,.22,18.7,8.68,18.75,19.34Z"/>
</svg>