<?xml version="1.0" encoding="UTF-8"?>
<svg id="uuid-1a4a0ff5-113a-44f6-83df-b86b1d8eff11" data-name="Calque 1" xmlns="http://www.w3.org/2000/svg" viewBox="0 0 281.9 253.4">
  <path d="M179.98,249.74c-12.99,0-26.21,1.53-38.93-.35-20.27-3.01-39.49,3.58-59.31,3.96-12.48,.24-24.67-.29-36.15-5.63-17.17-7.98-28.86-21.22-35.74-38.65C-.32,183.28-2.57,156.47,2.9,129.51c5.16-25.42,12.13-50.47,18.35-75.68,5.71-23.16,20.52-37.29,43.11-44.16C81.69,4.41,99.4,1.74,117.4,.64c31.74-1.94,63.25,.74,94.69,4.81,6.6,.85,13.23,1.49,19.84,2.31,13.59,1.7,23.29,9.11,30.21,20.62,9.1,15.15,12.82,32.02,15.92,49.12,5.95,32.82,3.92,65.73,1.08,98.64-.8,9.28-1.23,18.71-3.32,27.72-1.77,7.65-5.07,15.14-8.81,22.1-6.39,11.9-16.87,19.04-30.25,20.52-18.85,2.08-37.8,3.23-56.7,4.78-.03-.51-.05-1.01-.08-1.52Zm61.1-85.55c-.82-.3-1.64-.6-2.45-.91-1.52,2.01-3.02,4.03-4.55,6.03-13.82,18.11-31.84,30.2-53.76,35.98-21.5,5.66-40.95,.93-57.55-14.03-10.59-9.55-16.01-21.66-13.15-35.81,2.62-12.96,6.17-25.86,10.77-38.25,4.61-12.43,13.82-21.78,24.6-29.52,5.62-4.03,11.46-6.47,18.6-5.59,2.48,.3,5.24-.41,7.67-1.26,14.47-5.06,28.79-4.07,43.11,.57,9.92,3.22,18.52,8.62,26.91,17.92-1.29-17.55-4.29-32.29-10.04-46.49-2-4.94-5.43-7.14-10.6-7.52-6.63-.49-13.25-1.23-19.86-2.03-30.79-3.72-61.64-6.86-92.58-2.66-12.11,1.64-24.03,4.91-35.94,7.83-6.64,1.63-10.73,6.28-12.46,12.98-2.33,9.01-4.89,17.96-7.13,26.99-3.99,16.14-8.55,32.19-11.5,48.53-3.47,19.23-2.68,38.52,4.59,57.02,5.76,14.67,15.07,21.41,30.67,20.38,14.56-.96,29.09-3.16,43.47-5.73,8.94-1.6,17.51-4.33,25.93,1.42,.97,.67,2.59,.57,3.9,.54,24.61-.48,49.24-.71,73.83-1.68,10.04-.4,12.64-2.97,14.28-13.1,1.69-10.45,2.21-21.08,3.24-31.64Zm-65.83-44.73c-8.82-2.27-13.3,3.21-16.14,8.49-4.19,7.79-7.06,16.4-9.63,24.92-2.66,8.79-.63,12.11,8.14,14.6,3.41,.97,7.43,1.48,10.78,.63,16.08-4.08,29.44-12.38,37.59-27.34,2.98-5.47,6.94-12.05,2.97-17.81-4.18-6.07-11.93-6.65-19.08-6.43-1.94,.06-3.84,.91-5.78,1.29-3.23,.64-6.49,1.2-8.85,1.64Z"/>
  <path d="M94.2,96.89c-10.71-.13-18.86-8.31-18.96-19.01-.1-11.01,8.59-19.63,19.59-19.46,10.51,.16,18.95,8.62,19.06,19.1,.11,10.93-8.61,19.51-19.69,19.37Z"/>
</svg>