<?xml version="1.0" encoding="UTF-8"?>
<svg id="uuid-1a5885d1-7ad3-4317-b93a-087ff33093df" data-name="Calque 1" xmlns="http://www.w3.org/2000/svg" viewBox="0 0 303.43 270.83">
  <path d="M214.11,0c6.72,.55,18.75,.83,30.54,2.66,21.34,3.29,35.78,15.92,42.51,36.19,4.18,12.57,6.76,25.72,9.32,38.76,4.76,24.22,7.66,48.67,6.8,73.44-.5,14.4-2.92,28.42-7.53,42.11-6.62,19.64-19.19,33.95-37.64,43.26-13.5,6.81-27.88,10.93-42.63,13.74-31.37,5.99-62.69,12.39-94.24,17.28-17.01,2.64-34.46,3.57-51.69,3.38-22.56-.24-39.03-11.59-46.08-33.26-5.22-16.05-9.2-32.71-11.69-49.4C7.08,156.56,3.1,124.82,.31,93.01c-1.36-15.5,1.79-31.14,8.39-45.54,5.11-11.15,14.02-18.82,25.69-22.25,14.98-4.41,30.08-8.74,45.42-11.47C122.47,6.15,165.51,1.77,214.11,0ZM43.91,87.48c-4.43,5.04-4.55,9.8-3.91,14.92,2.57,20.8,4.48,41.69,7.61,62.4,2.78,18.38,6.29,36.7,10.55,54.8,2.54,10.82,6,13.08,17.08,12.88,11.94-.22,24.01-.8,35.77-2.76,24.59-4.11,49.01-9.21,73.49-13.96,13.69-2.66,27.42-5.22,41.03-8.25,22.6-5.03,34.62-19.7,37.45-42.34,.29-2.31,.49-4.63,.67-6.95,1.96-25.09-.69-49.84-5.69-74.4-.41-2.01-1.17-3.94-2.01-6.73-11.59,14.85-22.01,29.07-33.38,42.48-8.79,10.37-18.02,20.61-28.36,29.38-20.05,17-40.37,18.04-62.45,3.77-13.68-8.84-26.77-18.61-39.83-28.36-15.98-11.93-31.65-24.27-48.02-36.87ZM232.8,39.1c-56.55-.27-109.93,6.06-163.59,17.48,1.05,2.26,2.71,3.23,4.22,4.38,20.05,15.38,40.02,30.87,60.17,46.14,6.09,4.61,12.52,8.8,19,12.84,7.41,4.62,10.26,4.51,17.08-1.03,4.62-3.76,9.25-7.76,12.92-12.41,15.24-19.3,30.14-38.86,45.09-58.39,1.55-2.03,2.56-4.46,5.12-9.01Z"/>
</svg>