<?xml version="1.0" encoding="UTF-8"?>
<svg id="uuid-7ec85898-2f8b-4d49-bf26-31c42726162d" data-name="Calque 1" xmlns="http://www.w3.org/2000/svg" viewBox="0 0 284.53 274.83">
  <path d="M141.6,274.83c-42.03-1.45-78.35-15.43-107.1-46.61C-10.13,179.83-11.58,112.31,30.84,60.72c16.5-20.06,35.55-36.94,60.69-45.65,1.81-.63,3.79-1.56,5.03-2.94,6.73-7.49,15.81-9.91,25.08-10.93,21-2.32,41.95-1.42,62.45,4.12,52.33,14.16,92.84,62.05,99.38,116,9.57,78.93-46.47,136.42-109.25,149.34-10.7,2.2-21.74,2.82-32.62,4.17Zm4.19-39.56c4.58-.57,12.66-.85,20.38-2.66,82.14-19.23,100.64-105.93,55.43-158.73-24.09-28.13-55.17-36.78-90.54-34.57-2.24,.14-4.79,2.05-6.43,3.83-4.03,4.41-8.99,6.29-14.62,7.9-7.25,2.07-14.74,4.57-21.02,8.6-16.52,10.6-29.61,24.83-38.98,42.13-16.22,29.97-15.11,59.66,3.72,87.94,20.92,31.42,51.65,44.75,92.06,45.56Z"/>
  <path d="M79.85,101.78c.27-10.59,8.72-18.82,19.27-18.78,10.92,.04,19.44,8.89,19.18,19.91-.26,11.02-9.14,19.17-20.31,18.64-10.67-.51-18.41-8.96-18.13-19.78Z"/>
  <path d="M195.26,114.59c.04,10.44-8.4,19.15-18.87,19.46-10.74,.32-19.99-8.63-20-19.37-.01-10.68,9.25-19.76,19.9-19.5,10.36,.26,18.93,9.02,18.97,19.4Z"/>
  <path d="M129.59,205.59c-23.42-.2-49.01-21.36-53.23-41.9-1.86-9.06,3.25-18.38,11.91-21.73,8.85-3.42,18.16-.27,23.56,7.84,2.91,4.37,5.47,9.2,9.2,12.77,5.72,5.46,8.86,5.02,13.96-1.37,4.73-5.92,10.48-9.34,18.02-8.67,12.9,1.13,20.95,14.17,16.27,26.29-1.3,3.35-3.21,6.65-5.53,9.39-9.58,11.29-22.2,16.47-34.16,17.39Z"/>
</svg>