<?xml version="1.0" encoding="UTF-8"?>
<svg id="Calque_2" data-name="Calque 2" xmlns="http://www.w3.org/2000/svg" width="247.48" height="247.48" viewBox="0 0 247.48 247.48">
  <path d="M110.53,128.37c-18.56-3.16-37.09-10.78-49.01-25.97-11.7-14.9-15.19-36.57-5.53-53.53,4.55-7.99,13.11-11.27,21.85-12.49,9.28-1.29,20.46-1.48,28.87,3.13,16.4,9,25.54,30.28,28.78,47.81,1.67,9.02,3.17,22-2.55,29.95s-16.53,8.93-25.01,10.36c-9.5,1.61-5.47,16.06,3.99,14.46,10.69-1.81,22.08-4.36,30.01-12.33,8.56-8.59,10.25-21.19,9.66-32.78-1.2-23.69-11.2-49.94-29.95-65.32-10.42-8.55-22.84-11.21-36.11-10.84-11.33.32-23.31,2.38-32.59,9.31-20.29,15.15-21.1,47.32-11.23,68.48,11.8,25.32,38.29,39.67,64.86,44.2,9.44,1.61,13.5-12.84,3.99-14.46h0Z"/>
  <path d="M100.76,142.31c15.92,6.1,33.44,12.79,43.43,27.48,5.4,7.93,18.4.44,12.95-7.57-12.46-18.3-32.43-26.72-52.4-34.37-9.02-3.45-12.93,11.04-3.99,14.46h0Z"/>
  <path d="M135.46,112.07c-1.72,20.49,3.59,41.21,14.85,58.41,5.27,8.05,18.26.54,12.95-7.57-9.96-15.22-14.32-32.72-12.8-50.84.81-9.62-14.2-9.57-15,0h0Z"/>
  <path d="M147.28,170.94c7.1,8.51,14.36,16.64,19.83,26.33s12.05,17.91,18.97,26.29l1.52-11.78.44-.24,3.79,1.02c-1.8-.83-2.92-4.12-4.03-5.85-1.62-2.54-3.35-5.02-5.12-7.45-3.78-5.18-7.79-10.19-11.82-15.18-7.87-9.76-15.63-19.55-21.34-30.77-4.38-8.61-17.32-1.02-12.95,7.57,7.16,14.08,17.53,26.03,27.31,38.31,4.73,5.94,9.23,12.06,13.13,18.59,3.69,6.19,10.87,12.35,18.17,6.95,4.13-3.06,4.83-7.76,1.52-11.78-6.92-8.38-12.87-16.89-18.34-26.28-5.58-9.59-13.38-17.85-20.46-26.34-6.19-7.42-16.75,3.24-10.61,10.61h0Z"/>
  <path d="M149.66,167.13c6.26,9.34,12.53,18.68,18.79,28.01,5.71,8.51,10.96,18.56,19.01,25.1,3.17,2.57,7.5,3.04,10.61,0,2.67-2.61,3.14-8.06,0-10.61-7.55-6.13-12.39-15.68-17.74-23.66-5.91-8.8-11.81-17.61-17.72-26.41-5.35-7.98-18.35-.48-12.95,7.57h0Z"/>
  <path d="M137.17,167.54c12.35,19.94,26.15,38.93,41.23,56.89,6.21,7.4,16.78-3.26,10.61-10.61-14.26-16.99-27.21-34.99-38.89-53.85-5.07-8.19-18.05-.67-12.95,7.57h0Z"/>
  <path d="M53.08,44.72c16.17,32.53,31.75,65.53,51.53,96.07,5.23,8.07,18.22.56,12.95-7.57-19.78-30.54-35.36-63.55-51.53-96.07-4.3-8.64-17.24-1.06-12.95,7.57h0Z"/>
  <path d="M87.98,37.01c13.04,30.97,28.26,60.89,45.88,89.51,5.05,8.21,18.03.68,12.95-7.57-16.91-27.48-31.85-56.19-44.37-85.93-1.56-3.72-4.96-6.43-9.23-5.24-3.51.98-6.83,5.46-5.24,9.23h0Z"/>
  <path d="M45.85,87.51c27.51-14.49,59.89-16.37,86.51-33.02,8.17-5.11.65-18.09-7.57-12.95-26.48,16.55-59.01,18.53-86.51,33.02-8.54,4.5-.97,17.45,7.57,12.95h0Z"/>
  <path d="M73.66,123.55c23.4-14.27,46.79-28.55,70.19-42.82,8.23-5.02.7-18-7.57-12.95-23.4,14.27-46.79,28.55-70.19,42.82-8.23,5.02-.7,18,7.57,12.95h0Z"/>
</svg>