<?xml version="1.0" encoding="UTF-8"?>
<svg id="Calque_2" data-name="Calque 2" xmlns="http://www.w3.org/2000/svg" width="247.48" height="247.48" viewBox="0 0 247.48 247.48">
  <path d="M56.24,92.55c-11.88,3.04-23.97,6.78-33.92,14.2-4.26,3.17-8.05,6.76-9.34,12.1-1.45,5.97,1.16,12.07,6.57,14.96,14.95,8.01,32.28-7.91,47.23-5.14.59.11,1.36.74.94.24.92,1.1,1.32,2.78,1.7,4.1,1.13,3.94,1.69,8.02,2.17,12.08.58,4.94,1.2,9.85,1.14,14.83-.09,6.81-1.67,13-3.78,19.43-1.84,5.61-2.78,11.09-1.76,16.97s3.93,11.76,6.7,17.04c5.21,9.89,13.39,18.1,24.8,20,25.1,4.19,42.82-15.87,64.17-24.73,11.02-4.58,20.26-10.33,23.33-22.67,3.04-12.22,2.54-26.03,1.95-38.51-.3-6.36-1.03-12.64-1.7-18.97-.2-1.85-.41-3.75-.28-5.6.05-.74,1.05-3.38-.02-2.39-.71.65-1.3-1.5.46.33.57.6,1.52.89,2.2,1.38,1.74,1.27,3.26,2.93,4.73,4.48,3.87,4.08,7.65,8.17,11.89,11.88,6.47,5.66,20.88,18.13,29.61,9.44,3.81-3.79,2.89-10.19,2.21-15.01-.8-5.68-2.55-11.1-5.18-16.22-6.17-12.02-16.74-19.64-29.03-24.55-5.12-2.05-10.34-3.72-15.62-5.3-4.27-1.27-9.51-2.54-12.51-6.13-6.02-7.22-6.42-21.92-.53-29.22,3.51-4.35,8.88-6.88,13.66-9.54,5.22-2.9,10.25-6.01,14.51-10.25,3.9-3.89,2.23-11.2-3.31-12.54-17.71-4.27-36.38-.15-50.46,11.46-7,5.78-12.63,13.75-14.9,22.61-2.63,10.25-.95,20.82.77,31.07l5.24-9.23c-4.55.84-8.92,2.43-13.46,3.31-1.82.35-4.05.04-5.77.46-1.28.32-1.17-1.29-.25.59,1.08,2.21.36-.27.46-1.02.78-5.73.14-11.82-.51-17.51-.79-6.93-1.45-14.37-3.91-20.94-4.29-11.5-14.51-18.39-25.96-21.74-12.96-3.78-27.96-4.55-40.24,1.64-5.69,2.87-4.36,12.33,1.79,13.71,8.45,1.9,17.58,4.41,23.89,10.72s8.93,15.17,9.19,23.54c.2,6.41-.66,14.91-6.67,18.59s-15.26,4.32-22.2,6.06c-9.36,2.35-5.39,16.82,3.99,14.46s20.12-3.23,28-9.08c9.21-6.84,12.22-19.04,11.89-30.04-.35-11.89-4.46-24.19-12.55-33.06-8.1-8.88-20.13-13.1-31.55-15.66l1.79,13.71c9.78-4.93,25.12-2.7,34.68,2.14,11.94,6.05,12.41,19.44,13.38,31.46.8,9.83-2.69,22.9,9.78,26.62,9.45,2.83,19.03-1.82,28.2-3.51,4.27-.78,5.86-5.52,5.24-9.23-1.26-7.5-2.7-15.58-.77-23.09,1.65-6.39,5.81-11.78,10.91-15.87,10.01-8.03,23.64-10.71,36.01-7.72-1.1-4.18-2.21-8.36-3.31-12.54-10.46,10.44-26.42,12.77-33.13,27.34-5.81,12.62-4.45,31.04,4.67,41.92,8.88,10.6,24.95,11.54,36.93,16.84,13.32,5.89,24.05,19.38,22.25,34.68l1.02-3.79,1.6-1.6,3.79-1.02c-6.03.62-12.88-7.28-16.81-11.02-4.96-4.72-9.17-10.19-14.67-14.32s-12.49-6.39-18.74-2.78c-5.87,3.4-7.72,10.27-7.7,16.65.02,7.47,1.57,14.98,1.95,22.45.45,8.86.38,17.76-.23,26.61-.52,7.49-1.39,14.4-8.44,18.39-6.39,3.62-13.49,5.72-19.87,9.41-12.66,7.32-26.52,20.23-42.37,17.92-6.95-1.01-11.33-5.82-14.61-11.67-3.52-6.3-7.17-13.36-5.16-20.65,2.39-8.63,5.05-16.54,5.29-25.63.17-6.58-.75-13.13-1.59-19.64-1.41-10.86-3.57-24.55-16.23-27.21s-25.73,3.72-37.82,6.32c-.77.17-4.83-.09-5.25.31-.54.53.53,1.18.97,1.14.07,0,1.26-1.32,1.35-1.41,1.46-1.41,3.25-2.51,4.97-3.57,8.01-4.93,17.08-7.49,26.13-9.81,9.34-2.39,5.38-16.87-3.99-14.46Z"/>
  <path d="M86.04,192.24c1.26,1.12,2.46,2.29,3.59,3.54.5.55.98,1.13,1.46,1.7.91,1.08-.49-.72.03.03.27.38.55.76.82,1.14,2.25,3.2,6.66,5.01,10.26,2.69,3.18-2.05,5.11-6.83,2.69-10.26s-5.1-6.65-8.24-9.44c-2.93-2.61-7.76-3.1-10.61,0-2.62,2.85-3.13,7.82,0,10.61h0Z"/>
  <path d="M125.1,180.62c-5.57,2.69-10.34,7.49-12.96,13.09-1.66,3.55-1.11,8.25,2.69,10.26,3.32,1.75,8.49,1.1,10.26-2.69.48-1.04,1.02-2.03,1.66-2.99.39-.58.8-1,.12-.23.41-.47.81-.94,1.25-1.38.36-.37.74-.72,1.13-1.06.53-.47,1.05-.73.19-.18,1.05-.68,2.09-1.32,3.22-1.87,3.54-1.71,4.77-7.04,2.69-10.26-2.34-3.63-6.47-4.52-10.26-2.69h0Z"/>
  <path d="M90.02,136.24c9.65,0,9.67-15,0-15s-9.67,15,0,15h0Z"/>
  <path d="M160.56,134.48c9.65,0,9.67-15,0-15s-9.67,15,0,15h0Z"/>
</svg>