<?xml version="1.0" encoding="UTF-8"?>
<svg id="Calque_2" data-name="Calque 2" xmlns="http://www.w3.org/2000/svg" width="247.48" height="247.48" viewBox="0 0 247.48 247.48">
  <path d="M141.47,74.13c-30.47-1.02-67.12-.54-89.17,24.05-11.73,13.08-17.05,30.34-19.65,47.4-2.77,18.18-2.42,37.02,7.39,53.18,19.39,31.96,58.6,40.1,93.19,34.65s73.57-23.8,77.67-62.23c2.07-19.44-8.76-39.73-19.22-55.45-10.48-15.74-23.97-28.59-41.53-35.97-3.76-1.58-8.21,1.7-9.23,5.24-1.23,4.31,1.52,7.66,5.24,9.23,12.41,5.21,22.66,15.07,30.38,25.91,8.27,11.62,16.17,25.47,18.96,39.57,6.49,32.79-29.36,50.97-55.51,57.12-28.88,6.79-62.95,4.43-83.09-20.04-9.61-11.68-11.81-26.27-10.53-40.98,1.28-14.71,4.83-30.45,13.24-42.81,17.49-25.71,54.35-24.78,81.85-23.86,9.65.32,9.64-14.68,0-15h0Z"/>
  <path d="M125.13,104.51c-2.92-1.59-6.18-1.56-9.11-.04-.15.08-.29.16-.42.26-.61.43-1.27.88-1.78,1.43-.41.44-.92,1.11-1.25,1.61-.06.09-.1.17-.15.26-.22.4-.68,1.47-.8,1.9-.03.1-.06.19-.07.3-.31,1-.36,1.99-.13,2.99.05,1,.34,1.93.89,2.79.47.87,1.12,1.58,1.93,2.1.72.66,1.57,1.11,2.55,1.34,1.92.44,4.07.34,5.78-.76,1.55-1,3.12-2.59,3.45-4.48.02-.13.05-.24.09-.36l-.76,1.79c.07-.15.15-.28.25-.42l-1.17,1.52c.08-.09.17-.18.26-.26l-1.52,1.17c.14-.1.27-.18.42-.26l-1.79.76c.16-.06.31-.11.47-.14l-1.99.27c.17-.02.32-.03.49-.01l-1.99-.27c.12.02.23.05.35.09l-1.79-.76c.08.03.15.07.22.11,1.74.95,3.84,1.29,5.78.76.98-.23,1.83-.68,2.55-1.34.82-.53,1.46-1.23,1.93-2.1.92-1.74,1.38-3.85.76-5.78-.59-1.83-1.72-3.54-3.45-4.48h0Z"/>
  <path d="M133.35,106.92l-4.08-60.37c-.65-9.58-15.65-9.65-15,0l4.08,60.37c.65,9.58,15.65,9.65,15,0h0Z"/>
  <path d="M138.64,87.13c-4.93-11.4-.02-25.27,7.53-34.3,9.28-11.11,22.96-17.74,36.06-23.21,1.53-.64,3.06-1.31,4.62-1.87.56-.2,1.94-.94,2.54-.82-.39-.07-1.06-.71-.95-.09.42,2.28.52,4.33.39,6.66-.47,8.47-1.43,16.92-2.81,25.28-1.92,11.64-3.61,28.5-13.98,36.13-7.83,5.76-38.81,12.91-38.38-4.11.24-9.66-14.76-9.65-15,0s5.99,18.34,14.65,22.42c10.05,4.73,21.51,3.17,31.92.54s18.23-7.21,24.11-15.77c5.24-7.61,7.63-16.97,9.44-25.91,2.26-11.17,3.83-22.5,4.73-33.86.67-8.48,1.17-19.43-7.33-24.4-8.93-5.23-21.31,2.54-29.51,6.4-8.95,4.21-17.5,9.27-24.95,15.82-16.58,14.56-25.08,37.76-16.03,58.68,1.62,3.75,7.05,4.52,10.26,2.69,3.86-2.2,4.29-6.57,2.69-10.26h0Z"/>
  <path d="M59.69,157.29c9.65,0,9.67-15,0-15s-9.67,15,0,15h0Z"/>
  <path d="M82.5,164c9.65,0,9.67-15,0-15s-9.67,15,0,15h0Z"/>
  <path d="M57.01,180.09c9.65,0,9.67-15,0-15s-9.67,15,0,15h0Z"/>
  <path d="M95.92,194.85c9.65,0,9.67-15,0-15s-9.67,15,0,15h0Z"/>
  <path d="M71.77,198.88c9.65,0,9.67-15,0-15s-9.67,15,0,15h0Z"/>
  <path d="M132.14,209.61c9.65,0,9.67-15,0-15s-9.67,15,0,15h0Z"/>
  <path d="M93.23,216.32c9.65,0,9.67-15,0-15s-9.67,15,0,15h0Z"/>
</svg>