<?xml version="1.0" encoding="UTF-8"?>
<svg id="Calque_2" data-name="Calque 2" xmlns="http://www.w3.org/2000/svg" width="247.48" height="247.48" viewBox="0 0 247.48 247.48">
  <path d="M105.57,105.16c-7.82-6.03-18.85-7.13-27.91-3.4-9.82,4.04-15.04,12.84-18.4,22.48-1.44,4.12-2.52,8.36-4.07,12.44-1.99,5.25-5.22,9.49-8.94,13.62-7.21,8.02-14.2,15.94-16.49,26.83-4.55,21.69,7.08,41.48,26.5,51,18,8.83,45.22,15.85,61.88,1.05,8.04-7.14,9.42-17.65,7.7-27.73-1.58-9.28-6.68-19.47-2.14-28.63,4.79-9.66,15.92-11.64,23.02-18.92,6.31-6.47,8.84-18.23,2.17-25.45-2.96-3.21-6.84-4.63-11.13-4.96-2.02-.15-4.01.03-6.02.08.11,0-2.22-.07-2.3.02-.1,0-.12.03-.07.11.87,2.37,1.62,2.88,2.26,1.55,1.68-.79,3.57-4.35,4.85-5.86,1.87-2.2,3.76-4.38,5.65-6.56,3.79-4.37,7.6-8.72,11.38-13.09,15.05-17.38,29.96-35.29,40.96-55.59,2.98-5.49,6.63-11.87,2.52-17.79-3.34-4.8-9.82-6.98-15.47-7.01-12.37-.06-21.15,8.76-28.37,17.71-18.79,23.29-37.48,46.65-56.22,69.97-2.56,3.18-3.05,7.49,0,10.61,2.6,2.66,8.08,3.15,10.61,0,13.53-16.85,27.07-33.69,40.6-50.54,6.34-7.89,12.48-16,19.1-23.66,2.57-2.98,5.38-6.12,9-7.83,1.43-.68,2.97-1.15,4.56-1.23,1.23-.07,3.42.49,3.4.37v-3.99c-1.71,7.08-7.58,14.52-11.57,20.54-4.41,6.64-9.16,13.05-14.14,19.27-9.93,12.39-20.58,24.19-30.92,36.24-4.97,5.8-12.37,12.32-11.54,20.68.73,7.41,7.19,10.96,13.99,11.11,2.01.05,5.98-1.08,7.76-.11.64.35-.32-.61-.05.01.3.69.06,1.65-.14,2.34-1.47,5.23-9.85,7.7-13.91,10.47-13.42,9.13-18.74,23.26-15.73,39,1.26,6.61,4.37,13.63,3.67,20.47-.63,6.17-5.61,9.89-11.33,11.25-7.63,1.82-15.95-.21-23.35-2.19-6.68-1.79-13.11-4.2-18.94-7.96-11.77-7.61-17.48-21.81-12.52-35.27,2.87-7.78,9.48-13.19,14.62-19.43,5.33-6.47,8.66-13.41,11.19-21.36,2-6.27,3.59-14.25,9.05-18.57s12.57-3.07,17.66.85c3.23,2.49,8.37.47,10.26-2.69,2.3-3.84.5-7.8-2.69-10.26h0Z"/>
  <path d="M159.44,23.08l-6.2-.85c-2.09-.29-3.88-.36-5.78.76-1.56.91-3.04,2.69-3.45,4.48-.44,1.92-.34,4.07.76,5.78.98,1.51,2.61,3.19,4.48,3.45l6.2.85c2.09.29,3.88.36,5.78-.76,1.56-.91,3.04-2.69,3.45-4.48.44-1.92.34-4.07-.76-5.78-.98-1.51-2.61-3.19-4.48-3.45h0Z"/>
  <path d="M149.26,51.38c-.53-.1-1.06-.21-1.58-.36-.62-.18-1.31-.47-.33-.03-.97-.44-1.94-.99-2.78-1.64.58.45.49.4.03-.07-.37-.39-.74-.79-1.11-1.17-.53-.54.42.87-.17-.3-.29-.58-.64-1.12-.92-1.71-1.71-3.54-7.05-4.76-10.26-2.69-3.64,2.35-4.52,6.47-2.69,10.26,2.96,6.15,9.13,10.89,15.83,12.19,3.84.74,8.28-1.08,9.23-5.24.84-3.71-1.12-8.43-5.24-9.23h0Z"/>
  <path d="M191.09,61.16c-.45-.18-1.16-.55-.32-.13.32.16.64.32.95.49.71.39,1.36.84,2.03,1.29.82.54-.95-.89-.26-.18.25.25.54.47.79.72.58.56,1.11,1.15,1.63,1.77,2.52,3.03,8.04,2.8,10.61,0,2.95-3.22,2.69-7.38,0-10.61-3.06-3.67-7.05-6.07-11.44-7.81-3.66-1.45-8.39,1.58-9.23,5.24-.98,4.32,1.32,7.68,5.24,9.23h0Z"/>
  <path d="M163.65,72.89c2.13,3.89,4.93,7.48,8.19,10.48,2.89,2.66,7.79,3.07,10.61,0,2.66-2.89,3.08-7.77,0-10.61-1.34-1.23-2.55-2.55-3.71-3.95.41.49.53.73.08.08-.23-.33-.46-.66-.68-.99-.55-.84-1.06-1.7-1.54-2.58-1.89-3.44-6.92-4.84-10.26-2.69s-4.71,6.58-2.69,10.26h0Z"/>
  <path d="M88.73,217.09c9.65,0,9.67-15,0-15s-9.67,15,0,15h0Z"/>
  <path d="M94.13,190.75c9.65,0,9.67-15,0-15s-9.67,15,0,15h0Z"/>
</svg>