<?xml version="1.0" encoding="UTF-8"?>
<svg id="Calque_2" data-name="Calque 2" xmlns="http://www.w3.org/2000/svg" width="247.48" height="247.48" viewBox="0 0 247.48 247.48">
  <path d="M58.16,119.89c-9.36-4.73-14.78-16.33-17.64-25.97-1.5-5.06-2.43-10.91.28-15.74,2.5-4.46,7.47-6.81,12.27-7.87,6.44-1.41,13.64-.68,20.08.43s10.48,4.07,14.95,8.81c3.66,3.88,7.8,7.98,9.69,13.07,2.2,5.94,1.21,12.77.59,18.91-.41,4.04,3.74,7.5,7.5,7.5,4.39,0,7.09-3.45,7.5-7.5.88-8.69,1.28-17.46-2.23-25.65-3.17-7.41-9.06-13.73-14.75-19.34-6.52-6.42-13.65-9.52-22.61-10.75s-18.69-2.04-27.59.84c-17,5.5-24.74,20.98-20.97,38.11,3.13,14.21,11.9,31.31,25.36,38.11,8.6,4.34,16.2-8.59,7.57-12.95h0Z"/>
  <path d="M70.77,116.52l-1.58-7.26c.03.13-.81-5.69-1.91-3.18.32-.73,5.49-.4,6.28-.34,2.01.13,4.03.47,5.81,1.48,1.31.74,1.88,1.78,2.94,2.68.09,1.21.49,1.46,1.19.74-.62.12-1.24.11-1.86-.05-2.65-1.09-5.89-2.77-6.71-5.82l-.6,4.56c-3.19.93-3.97,1.55-2.34,1.85.76.2,1.51.43,2.26.68,1.76.63,3.34,1.54,4.93,2.5,6.53,3.98,12.48-6.26,5.98-10.22-4.8-2.92-12.11-6.71-17.72-4.04-5.98,2.84-4.2,9.43-.95,13.63,5.8,7.48,21.43,14.21,27.14,2.74,6.05-12.15-9.02-21.82-19.17-22.54-5.87-.42-14.19-.08-17.06,6.04-2.69,5.74.68,13.9,1.94,19.69,1.62,7.44,13.04,4.29,11.42-3.15h0Z"/>
  <path d="M140.79,79.12c8.59-6.39,19.12-9.28,29.63-10.67,8.5-1.12,19.01-.87,24.58,6.7,4.15,5.64,4.69,13.53,3.18,20.17-1.97,8.65-7.11,13.61-15.83,15.21-9.48,1.74-5.46,16.2,3.99,14.46,12.79-2.35,22.4-11.35,25.86-23.85,2.94-10.62,2.32-23.02-3.59-32.57-7.06-11.42-19.99-16.04-33-15.54-14.48.55-30.62,4.39-42.38,13.14-3.27,2.44-4.85,6.46-2.69,10.26,1.83,3.22,7.02,5.1,10.26,2.69h0Z"/>
  <path d="M44.95,53.12c28.14,21.62,55.79,43.88,82.98,66.7,6.08,5.1,16.85-1.5,11.78-9.09-10.65-15.94-21.58-32.34-36.36-44.81-6.75-5.7-14.21-10.16-21.68-14.81-6.81-4.24-13.25-8.78-17.07-16.03l-10.26,10.26c29.82,15.28,56.47,35.64,79.03,60.41,3.51,3.86,9.12,2.2,11.78-1.52,8.59-12.01,18.56-22.99,29.61-32.79,5.31-4.71,10.97-8.88,16.55-13.25,5.19-4.05,9.71-8.88,11.06-15.54.75-3.7-1.03-8.46-5.24-9.23-34.35-6.28-57.84,21.5-74.84,47.1-4.35,6.55,4.02,13.63,10.26,10.26,16.7-9.02,32.22-19.99,46.4-32.6,6.27-5.57-2.12-16.8-9.09-11.78-12.69,9.14-25.37,18.28-38.06,27.42l10.26,10.26c10.17-14.68,24.03-26.11,40.1-33.82,8.7-4.17,1.1-17.11-7.57-12.95-18.42,8.84-33.88,22.44-45.48,39.2-4.17,6.02,4.22,14.62,10.26,10.26,12.69-9.14,25.37-18.28,38.06-27.42l-9.09-11.78c-13.25,11.78-27.77,21.83-43.36,30.25l10.26,10.26c12.63-19.02,31.43-45.05,57.9-40.21l-5.24-9.23c-1.1,5.44-6.68,8.44-10.8,11.57-5.83,4.43-11.47,9.11-16.82,14.11-10.46,9.78-19.76,20.67-28.09,32.31l11.78-1.52c-23.34-25.62-51.23-46.95-82.07-62.76-6.71-3.44-13.83,3.49-10.26,10.26,8.28,15.71,25.3,21.58,38.63,31.87,15.17,11.72,25.96,28.04,36.48,43.79l11.78-9.09c-28.17-23.64-56.86-46.64-86.01-69.04-3.24-2.49-8.37-.47-10.26,2.69-2.3,3.84-.5,7.81,2.69,10.26h0Z"/>
  <g>
    <path d="M53.97,173.35c25.99-16.07,57.3-29.86,88.47-28.67,24.76.95,50.7,15.01,56.72,40.61,2.21,9.39,16.68,5.42,14.46-3.99-7.11-30.22-36.42-48.41-65.82-51.26-35.32-3.42-71.98,12.17-101.41,30.36-8.2,5.07-.67,18.05,7.57,12.95h0Z"/>
    <path d="M56.46,122c-9.15,4.02-16.31,9.84-21.52,18.43s-9.2,17.88-10.29,27.51c-2.04,18.05,11.98,35.11,30.87,33.1,17.74-1.89,32.43-15.88,47.65-24.02s36.58-16.58,52.08-4.26c6.78,5.39,12.3,12.55,15.69,20.53,3.62,8.51,5.34,16.84,14.27,21.48,14.08,7.33,36.33,5,46.41-7.96,11.63-14.96,3.81-36.99-3.07-52.32-7.92-17.66-21.57-29.65-39.54-36.48-10.67-4.06-22.01-6.35-33.35-7.49s-23.5-2.07-35.11-2.05c-21.13.04-42.82,4.58-62.29,12.76-3.72,1.56-6.43,4.97-5.24,9.23.98,3.51,5.46,6.82,9.23,5.24,14.77-6.21,30.7-10.28,46.66-11.68,8.39-.74,16.72-.56,25.11.05,9.06.65,18.26.76,27.24,2.18,15.83,2.52,33.16,7.44,44.3,19.66,5.29,5.8,9.04,13.08,11.75,20.41,2.51,6.79,5.09,14.22,5.2,21.52s-3.25,12.46-10.2,14.57c-5.86,1.78-13.38,2.01-19.1-.42-6.4-2.72-7.24-11.99-9.95-17.69-3.26-6.85-7.91-13.21-13.33-18.52-5.66-5.54-12.52-10.62-20.2-12.9-8.31-2.47-17.48-1.54-25.83.22-16.28,3.43-31.18,12.02-45.03,20.93-9.5,6.11-31.31,21.8-38.4,3.95-3.17-7.98.86-17.15,4.37-24.29,4.49-9.14,9.81-14.62,19.2-18.75,3.74-1.64,4.53-7.03,2.69-10.26-2.19-3.85-6.57-4.31-10.26-2.69Z"/>
  </g>
  <path d="M169.53,102.06c-.67-.51-1.29-1.08-1.86-1.7-1.01-1.38-1.72-.55-2.13,2.49.15.42,1.74,1.51,2.13,1.84.31.31.59.65.84,1.01,1.71,2.61,4.37,1.7,7.99-2.73l.06-.27c.88-1.23.06-1.12-2.47.33l-3.8-2.92c.93,1.3,1.2,2.25.6,3.74l2.92-3.8c1.41-.77.01-.25-1.1-.37-1.3-.14-2.63-.16-3.94-.25-.56-.03-3.59-.59-3.94-.25.12-.12.66,6.48,1.51,1.86.36-1.94.02-3.85-.99-5.54-.51-.85-1.13-1.6-1.91-2.2-.4-.39-.86-.67-1.4-.82-1.58-.84-1.29-.1.89,2.21l-12.5-1.69c.08,6.3.93,17.76,8.87,19.07,4.92.82,8.83-2.78,7.83-7.83-.52-2.64-4.94-12.96-2.33-15.18l-6.19,1.64c-1.84-.72.72.98,1.23,1.46.81.75,1.93,1.59,2.51,2.54l-.64-4.9-.16.73,11.63-1.52c-1.42-2.46-2.15-4.83-2.59-7.62l-10.63,6.19c3.16,2.88,6.31,5.75,9.47,8.63,2.57-3.33,5.14-6.66,7.71-9.99-2.05-1.33-3.76-2.92-5.16-4.93l-5.49,9.57c-1.23-.68-1.14-.46.27.65.69.67,1.32,1.4,1.89,2.17,1.02,1.38,1.86,2.95,2.5,4.54,1.33,3.33,1.86,7.04,1.32,10.6s.87,6.8,4.44,7.83c3,.86,7.31-1.05,7.83-4.44,1.11-7.31.41-14.33-2.85-21.04-2.94-6.06-8.17-12.81-15.4-13.03-4.58-.14-8.25,5.6-5.49,9.57s5.78,6.93,9.72,9.5c6.02,3.92,13.06-5.12,7.71-9.99-3.16-2.88-6.31-5.75-9.47-8.63-4.98-4.54-11.6.05-10.63,6.19.6,3.83,1.93,7.3,3.87,10.66,2.62,4.55,10.46,3.93,11.63-1.52,1.45-6.77-6.1-13.22-11.83-15.48-2.17-.86-4.57.26-6.19,1.64-7.97,6.81-2.56,19.38-.94,27.56l7.83-7.83c2.26.38,1.24.22.83-2.11-.28-1.57-.33-3.1-.36-4.7-.09-6.87-11.49-9.03-12.5-1.69-.84,6.16.73,11.3,7.24,13.12l-3.8-2.92c-.24-2.34-.46-2.67-.65-.98-.3,1.13-.3,2.26,0,3.38.25,1.34.77,2.43,1.57,3.54,2.41,3.32,5.91,4.11,9.83,4.46,6.37.57,16.5,2.65,18.7-5.62,1.66-6.23-1.25-16.18-8.99-16.26-6.88-.07-11.37,8.39-10.63,14.39.78,6.37,7.62,11.77,13.77,7.66,6.66-4.45,2.94-12.48-1.51-16.91-4.75-4.73-12.18-7.05-17.85-2.45-6.77,5.49-3.3,13.58,2.19,18.35,6.15,5.35,15.19-3.61,9-9h0Z"/>
  <path d="M138.45,90.57c9.65,0,9.67-15,0-15s-9.67,15,0,15h0Z"/>
</svg>