<?xml version="1.0" encoding="UTF-8"?>
<svg id="Calque_2" data-name="Calque 2" xmlns="http://www.w3.org/2000/svg" width="247.48" height="247.48" viewBox="0 0 247.48 247.48">
  <path d="M39.8,34.81c-1.61,7.87-2.82,16.23,1.09,23.65,3.31,6.27,9.73,10.17,16.47,11.78,15.34,3.67,33.37.45,48.04-4.56,6.95-2.38,16.9-5.26,21.36-11.52,5.07-7.12,1.82-15.61-3.55-21.49-5.33-5.84-14.76-9.35-20.07-1.37-4.21,6.32-3.8,16.83-3.76,24.12.08,15.92,5.27,32.13,18.5,41.9s29.95,7.69,43.38.1c13.76-7.79,27.37-21.63,19.37-38.29-5.7-11.87-27.01-28.68-36.66-11.31-3.99,7.19-4.91,16.78-5.83,24.8-.97,8.48-1.01,17.09.22,25.54,2.19,15.07,11.03,28.85,27.01,31.45,7.85,1.28,15.8.29,23.45-1.69,7.22-1.87,15.43-5.34,14.84-14.22-.52-7.78-9.24-13.58-15.59-16.67-7.21-3.51-14.87-5.25-22.8-6.13-16.71-1.86-34.69,0-50.62,5.41-12.97,4.4-26.48,12.21-32.44,25.15-3.22,7-4.79,15.76-.81,22.81,3.74,6.62,11.11,10.29,18.35,11.64,17.38,3.23,35.35-2.05,50.59-10.37,13.48-7.36,30.19-18.93,28.41-36.34-1.64-16.03-14.54-30.24-25.54-41.08-5.78-5.69-12.08-10.87-18.69-15.56-6.56-4.65-14.1-9.9-22.54-9.24-15.26,1.2-23.27,22.16-26.72,34.67-4.12,14.96-4.18,31.24.12,46.17,4.13,14.31,12.65,30.14,28.54,33.37,14,2.85,32.48-1.84,42.93-11.89,13.25-12.74,6.68-29.78-2.33-42.84-8.49-12.29-20.94-27.58-36.59-30.12s-30.47,6.8-40.67,17.97c-19.98,21.89-28.49,52.47-24.09,81.61,2.25,14.9,8.02,31.1,20.11,40.79,12.92,10.36,29.88,13.33,46.04,11.75,8.63-.84,17.26-2.51,25.63-4.76,7-1.89,14.32-4.73,19.41-10.11,11.28-11.91,6.84-29.58.52-42.78-12.13-25.35-41.89-46.22-70.82-43.08-16,1.74-28.13,13.99-30.96,29.74-2.97,16.54,3.25,33.78,12.31,47.5s21.6,23.29,37.45,27.12,32.59,2.81,48.42.46,31.59-8.73,40.85-22.61c8.86-13.28,7.59-29.82-2.64-41.9-10.17-12.01-26.33-15.88-41.44-15.86v15c15.65-1.54,31.77-7.53,42.99-18.95,5.75-5.86,8.69-13.48,6.38-21.6-2.25-7.89-8.36-14.97-13.35-21.3-4.92-6.25-10.31-12.12-16.13-17.55-5.38-5.02-12.39-12.6-20.58-10.91-7.63,1.58-9.92,9.64-11.19,16.37s-1.56,13.76.37,20.37c4.45,15.21,19.85,23.11,35.04,19.33,15.3-3.81,26.32-18.41,30.22-33.07,8.03-30.25-11.42-58.45-40.27-67.26-30.11-9.19-62.05,5.47-82.15,27.99-10.8,12.09-18.84,26.18-25.15,41.05-5.56,13.1-13.01,29.16-9.19,43.7,4.3,16.35,23.55,20.26,38.27,20.39,16.85.15,30-11.94,26.31-29.32-5.71-26.89-27.9-52.2-54.79-59.01-14.79-3.75-33.59-1.32-40.57,14.23-6.94,15.46,4.49,31.54,14.83,42.3,22.52,23.45,54.85,39.23,85.9,47.64,7.85,2.13,15.82,3.74,23.87,4.94,4.03.6,8.02-1.01,9.23-5.24,1.01-3.53-1.24-8.63-5.24-9.23-25.29-3.75-49.67-12.07-71.74-25.02-10.13-5.95-19.99-12.65-28.5-20.79-6.22-5.95-19.07-18.51-14.82-28.32,4.59-10.58,20.22-7.41,28.5-4.38,9.29,3.41,17.29,9.74,23.72,17.15,6.53,7.52,11.43,16.68,14.24,26.22,1.53,5.2,2.11,9.98-3.49,12.54-5.14,2.35-11.46,1.17-16.8.22-4.32-.77-10.08-1.33-12.98-5.06s-2.08-9.39-1.2-13.53c2.39-11.24,7.26-22.42,12.35-32.67,10.51-21.14,26.48-41.02,49.22-49.56,19.46-7.3,42.22-4.66,57.01,10.88,14.38,15.12,14.18,43.37-4.06,55.69-10.05,6.79-22.83,2.97-24.06-9.78-.25-2.55-.13-5.22.28-7.74.22-1.41,2.62-7.36,2.15-8.07l-3.19,1.89,1.23.78c1.05,1.54,3.37,2.88,4.76,4.14,2.53,2.28,4.98,4.65,7.36,7.1,4.7,4.84,9.11,9.96,13.08,15.42,2.9,3.99,9.47,10.85,6.56,15.99-2.83,4.98-9.44,8.58-14.31,11.1-6.2,3.22-13.13,5.23-20.08,5.92-9.42.93-9.85,15.01,0,15s21.29,1.73,28.83,9.28c6.65,6.65,8.23,15.76,3.48,23.99-10.77,18.65-38.78,19.51-57.77,19.04-9.95-.24-20.13-1.86-28.83-6.97-9.15-5.37-15.54-14.15-20.23-23.49s-8.19-20.72-5.15-31.17,11.19-15.77,21.87-15.38c18.21.67,36.02,11.78,46.25,26.57,5.15,7.43,10.38,17.48,9.86,26.81s-10.3,12.13-18.17,14.06c-19.58,4.8-47.8,8.68-61.13-10.88-10.87-15.95-12.26-38.69-8.1-57.02,4.1-18.05,14.34-37.4,30.73-47.09,9.22-5.45,18.1-5.26,26.32,1.85s15.25,15.66,20.46,25.15c2.19,3.99,4.53,9.06,2.32,13.51-1.73,3.48-5.5,5.69-8.88,7.29-8.08,3.83-20.58,7-28.48,1.34-7.9-5.67-11.32-17.35-13.12-26.39-1.89-9.5-1.61-19.57.59-28.99,1.17-5.01,2.79-9.94,5.07-14.56,1.7-3.46,4.16-9.53,7.68-11.64s8.96,2.4,11.84,4.31c4.78,3.18,9.32,6.66,13.62,10.46,7.97,7.05,15.5,15.04,21.31,23.98,2.66,4.09,5.45,8.95,5.45,13.98,0,5.84-4.64,9.64-8.87,12.99-8.58,6.79-18.62,11.96-29.13,14.96-5.83,1.67-11.76,2.63-17.84,2.35-3.96-.18-10.74-.76-13.27-4.44-1.96-2.85-.16-7.52,1.26-10.23,2.06-3.94,5.34-7.15,8.96-9.67,8.26-5.74,18.09-8.56,27.87-10.42,11.13-2.11,23.14-2.71,34.36-.94,4.77.75,9.65,1.95,13.98,4.15,2.15,1.09,4.08,3.11,6.18,4.05l.57.54c1.13,1.38,1.58.47,1.35-2.71-.57-.3-2.91.84-3.7,1.06-8.71,2.33-20.62,4.26-27.19-3.64-5.94-7.14-6.14-18.02-5.97-26.81.12-6.16.78-12.26,2.06-18.29.55-2.61,1.08-5.33,1.98-7.85.15-.43.31-1.6.77-1.85-1.5.8,1.56,1.77,2.01,2.08,3.46,2.35,7.15,6.07,8.51,10.13,1.77,5.28-2.87,8.97-6.48,12.11-6.96,6.06-16.85,11.14-26.34,9.58-9.24-1.52-15.73-9.72-18.43-18.23-1.66-5.22-2.18-10.57-2.15-16.02.02-3.13.22-6.26.52-9.38.12-1.24.21-2.52.41-3.74l.17-1.05c.83-2.26,0-1.83-2.49,1.28l-3.79-1.02c1.66.84,3.1,2.04,4.15,3.62.52.66.89,1.39,1.09,2.19.46-1,.4-1.25-.19-.77-3.22,2.27-7.51,3.69-11.19,5.01-7.63,2.75-15.64,4.72-23.72,5.48-6.57.61-14.28,1.39-20.59-1.08-7.17-2.81-5.79-9.94-4.51-16.23,1.92-9.42-12.53-13.45-14.46-3.99h0Z"/>
</svg>