<?xml version="1.0" encoding="UTF-8"?>
<svg id="Calque_2" data-name="Calque 2" xmlns="http://www.w3.org/2000/svg" width="247.48" height="247.48" viewBox="0 0 247.48 247.48">
  <path d="M106.32,148.22c-3.04,11.25-7.07,21.7-7.6,33.53-.49,11.06,1.77,24.32,9.78,32.57,14.89,15.35,43.91,13.64,60.26,1.86,8.52-6.14,14.75-15.28,16.68-25.68,2.09-11.28-1.4-21.46-6.93-31.22-5.4-9.53-13.03-17.95-17.77-27.83-.56-1.18-1.53-2.76-1.24-4.12-.31,1.46,1.76-.73,2.87-1.35,5.77-3.16,11.6-6.22,17.33-9.45,11.85-6.67,22.9-14.13,33.23-23.02,9.63-8.29,16.89-19.12,18.1-31.95.59-6.31-6.66-8.47-11.29-6.48-9.67,4.16-19.46,8.04-29.39,11.56-9.12,3.24-18.56,5.52-27.68,8.71-1.71.6-4.93,1.13-6.3,2.18-.66.5-.54.25-.47.09l2.6,2.74c2.07,3.56,3,3.82,2.79.77,1-2.22.62-6.41.86-8.86,1.05-10.83,2.09-21.65,3.14-32.48.85-8.76,2.03-19.96-8.16-23.76s-16.96,7.02-21.95,14.06c-9.44,13.35-14.89,28.91-16.58,45.1-.5,4.75-.72,10.53-3.2,14.65-2.92,4.85-8.83,2.6-13.87,1.59-12.18-2.45-24.93-2.22-37.01.75-11.62,2.86-23.07,8.67-30.6,18.18-8.66,10.95-10.7,25.4-7.17,38.77,5.16,19.52,22.27,34.29,42.9,31.13,8.78-1.34,17.21-5.39,24.56-10.28,3.64-2.42,7.3-5.07,10.49-8.08,1.94-1.83,3.61-3.92,5.48-5.82.67-.69,1.73-1.43,2.27-2.17s1.31-.3.34-.42l-3.79-1.02-2.7-4.26c-1.74,9.44,12.71,13.48,14.46,3.99.73-3.94.91-8.12-2.16-11.19-2.72-2.72-6.73-3.02-10.19-1.84-7.61,2.61-12.03,10.71-18.26,15.38-10.57,7.92-27.78,17.21-39.44,6.3-9.44-8.83-14.01-24.22-8.2-36.3,4.51-9.36,14.23-14.66,23.86-17.36,10.55-2.95,21.96-3.32,32.66-.98,7.6,1.66,15.28,2.93,22.29-1.39,5.24-3.23,8.33-8.87,9.95-14.65s1.89-11.66,2.57-17.49c.77-6.58,3.12-14.21,6-20.6,1.71-3.79,3.72-7.45,5.95-10.96,1.17-1.83,2.39-3.64,3.72-5.36.42-.54,4.88-5.04,4.78-5.59l-1.64-.27c-1.47-.8-2.01-.52-1.61.84-.25.47-.18,2.81-.21,3.16-.19,2.3-.44,4.59-.67,6.89-.54,5.58-1.08,11.15-1.62,16.73-.57,5.91-1.14,11.81-1.71,17.72-.47,4.82-1.98,10.38,1.64,14.37,4.73,5.21,12.06,2.41,17.59.43,9.27-3.31,18.93-5.62,28.23-8.92,11.15-3.95,22.11-8.39,32.97-13.07l-11.29-6.48c-.84,8.9-7.79,16.34-14.28,21.83-8.25,6.98-16.96,12.98-26.34,18.34-4.63,2.64-9.29,5.22-13.97,7.75-4.4,2.38-9.45,4.39-12.89,8.14-6.17,6.73-4.07,15.38-.1,22.61,4.54,8.26,10.51,15.66,15.4,23.72s9.01,16.14,6.47,25.48c-4.75,17.48-25.43,23.85-41.5,19.45-25.17-6.89-12.6-39.79-8.03-56.68,2.52-9.33-11.94-13.31-14.46-3.99Z"/>
  <path d="M132.92,158.82c-10.72,3.65-15.54,19.37-13.19,29.65,2.67,11.68,13.76,17.55,25.15,15.69,11.29-1.85,18.45-14.87,17.88-25.69-.65-12.34-10.31-20.58-22.01-21.97-4.03-.48-7.5,3.79-7.5,7.5,0,4.45,3.46,7.02,7.5,7.5s6.83,3.96,7.03,7.77c.16,3.13-1.94,9.31-5.32,10.22-3.97,1.06-7.59-1.02-8.28-4.99-.39-2.26.26-4.75,1.05-6.85.35-.92.78-1.81,1.23-2.68.88-1.68,1.95-2.18.43-1.67,9.09-3.09,5.19-17.59-3.99-14.46h0Z"/>
  <path d="M88.75,148.97c6.98-9.26,6.67-26.48-4.45-32.84-8.46-4.84-24.61-2.74-31.14,4.42s-7.19,24.46-.37,31.75c8.63,9.23,26.97,6.98,34.79-1.82,6.4-7.19-4.17-17.84-10.61-10.61-2.55,2.86-4.15,3.01-7.88,2.98-1.39-.01-4.44.23-5.39-.83-1.45-1.61-.73-9.91.46-11.36,2.01-2.44,9.81-2.35,12.5-1.44,1.56.53-.08-.71.7.99.44.97.94,1.93,1.11,3,.5,3.16-.84,5.73-2.68,8.17-2.46,3.26-.49,8.35,2.69,10.26,3.82,2.29,7.84.53,10.26-2.69Z"/>
  <path d="M114.66,166.1c3-6.04,5.91-12.17,8.06-18.57s2.79-12.5,3.7-18.93.97-12.6,1.8-18.87c.87-6.53,2.3-12.99,3.24-19.52.59-4.04-1-8.01-5.24-9.23-3.52-1.01-8.65,1.23-9.23,5.24-.86,5.96-2.06,11.86-2.99,17.81-.98,6.27-1.11,12.54-1.84,18.83-1.49,12.91-4.68,24.02-10.47,35.67-4.28,8.62,8.65,16.23,12.95,7.57h0Z"/>
  <path d="M147.46,73.26c-1.66,10.87-2.8,21.77-3.11,32.76-.28,10.2-1.94,22.32,2.87,31.67,4.41,8.59,17.36,1.01,12.95-7.57-1.81-3.52-.94-8.39-.95-12.21-.01-4.55.02-9.1.18-13.64.31-9.06,1.15-18.06,2.52-27.02.62-4.03-1.02-8.02-5.24-9.23-3.54-1.01-8.61,1.24-9.23,5.24h0Z"/>
</svg>