<?xml version="1.0" encoding="UTF-8"?>
<svg id="Calque_2" data-name="Calque 2" xmlns="http://www.w3.org/2000/svg" width="247.48" height="247.48" viewBox="0 0 247.48 247.48">
  <path d="M56.34,166.21c-8.69,4.78-16.15,12.59-18.33,22.52-2.04,9.29-.12,19.01,4.01,27.45,3.54,7.25,9.3,12.68,15.66,17.45s14.44,9.46,22.7,8.73c9.64-.84,16.62-9.4,14.64-19.07-.92-4.51-3.61-8.54-7.05-11.52-3.88-3.36-9.32-5.12-12.74-8.95-2.62-2.94-3.34-4.59.51-6.04,5.17-1.95,11.14.1,15.81,2.41,10.18,5.03,19.36,11.79,29.77,16.44,13.48,6.03,32.48,11.98,47.37,7.53,7.33-2.19,12.75-8.77,11.19-16.69-1.36-6.89-7.37-11.47-13.32-14.46s-12.55-4.91-18.94-7.14c-1.6-.56-8.15-2.94-7.49-5.52.75-2.91,8.84-3.12,11.24-3.1,9.76.11,18.87,6.51,26.67,11.76,3.97,2.67,7.61,5.7,10.82,9.25,3.72,4.12,6.41,9.03,10.1,13.18,6.58,7.39,17.61,12.01,26.99,6.96s10.95-17.52,6.42-26.39c-4.96-9.73-15.13-13.38-23.01-20.06-3.54-3.01-6.51-6.77-8.47-11-1.5-3.24-1.66-4.55,1.51-6.17,6.78-3.46,14.95-3.09,21.87-6.27,9.46-4.34,15-15.95,9.58-25.57-2.44-4.33-6.51-7.19-11.37-8.01-5.6-.94-10.9,1.44-16.2,2.88-8.2,2.22-16.87,4.37-25.42,4.4-7.03.02-13.97-1.82-17.11-8.72-2.56-5.64-2.09-12.64-1.28-18.6,2.13-15.49,8.69-30.13,8.74-45.94.03-10.34-2.63-20.98-9.55-28.9-7.99-9.16-19.9-9.16-31.19-9.53-21.67-.7-45.52,6.74-51.29,30.26-2.53,10.31-1.56,21.54,1.38,31.65,1.44,4.94,3.55,9.98,3.93,15.16s-.87,10.96-1.62,16.29c-1.35,9.47-1.68,19.31-13.18,20.85-4.59.61-10.31.61-14.75-.75-5.05-1.54-9.02-5.67-13.33-8.54-8.94-5.96-21.87-8.21-29.79.73-6.91,7.79-5.66,19.4.09,27.4,13.62,18.92,36.57,17.9,57.3,18.3.41,0,5,.68,5.15.59-.23.13.16-1.79-.07-1.89.18.08-1.63,1.07-1.74,1.13-2.34,1.14-5.43,1.29-7.91,2.06-2.87.88-5.64,2.1-8.33,3.42-8.66,4.27-1.07,17.21,7.57,12.95s21.36-3.66,24.67-15.2c3.05-10.64-6.4-17.05-15.75-17.9s-19.02.59-28.43-.95c-7.98-1.31-18.2-5.48-21.67-13.49-1.12-2.59-1.15-6.42,1.98-7.41,4.4-1.38,9.72,3.39,12.92,5.77,3.91,2.91,7.8,5.74,12.5,7.25s10.32,1.79,15.34,1.74c10.15-.12,20.12-3.08,26.08-11.82,5.48-8.04,5.61-18.54,6.92-27.86.66-4.71,1.39-9.51.9-14.26-.6-5.79-2.45-11.19-4.09-16.73-2.59-8.75-3.89-18.68-.74-27.47,3.16-8.84,11.54-13.49,20.3-15.32,5.44-1.14,11.07-1.11,16.6-.9,4.72.18,11.26-.38,15.63,1.69,8.27,3.92,9.44,16.27,9.09,24.14-.3,6.76-2.06,13.23-3.75,19.74-3.53,13.61-7.56,28.41-4.31,42.47,3.89,16.8,19.31,24.55,35.63,23.52,8.73-.55,17.5-2.42,25.94-4.68,1.9-.51,9.46-3.85,10.79-2.62,3.17,2.94-3.78,5.65-5.44,6.09-6.81,1.81-13.86,2.56-20.18,5.92-7.52,3.99-11.65,11.91-9.45,20.34,2.48,9.52,9.65,17.88,17.42,23.57,4.81,3.53,18.83,9.48,17.13,17.43-.67,3.11-3.67,2.6-5.94,1.47-4.35-2.17-6.99-7.26-9.77-11.02-5.98-8.11-13.38-14.33-21.88-19.68s-16.72-10.1-26.44-11.32c-8.69-1.09-20.1.16-26.46,6.91-7.17,7.61-4.36,19.07,3.22,25.16,5.52,4.43,12.51,6.02,19.06,8.31,2.81.98,5.58,2.05,8.22,3.45,1.21.65,2.44,1.34,3.55,2.14.84.61,1.52,1.51,1.64,1.54.36.11-.24.21.04.1-.07.03.2-.88.2-.73,0-.11.57-.55.6-.48.28.51-1.19.44-.44.37-3.06.25-5.72,1.08-9.01.95-16.97-.69-32.29-8.24-46.59-16.84-9.04-5.44-18.3-11.23-29.21-11.45-9.54-.19-21.09,4.81-22.65,15.28-1.41,9.47,5.78,17.54,13.19,22.24,2.49,1.58,8.42,3.91,8.96,7.38.29,1.83-1.05,1.66-3.06,1.26-6-1.19-11.8-6.09-16.11-10.21-5.27-5.04-8.68-12.2-8.9-19.55-.25-8.48,4.52-14.36,11.72-18.32,8.46-4.65.9-17.61-7.57-12.95Z"/>
  <path d="M107.57,93.28c9.65,0,9.67-15,0-15s-9.67,15,0,15h0Z"/>
  <path d="M142.06,90.33c9.65,0,9.67-15,0-15s-9.67,15,0,15h0Z"/>
</svg>